<mxfile host="app.diagrams.net" agent="Mozilla/5.0 (Windows NT 10.0; Win64; x64) AppleWebKit/537.36 (KHTML, like Gecko) Chrome/133.0.0.0 Safari/537.36" version="26.1.0">
  <diagram name="Page-1" id="TCwwV2JcCL6V0dPfaFEr">
    <mxGraphModel dx="1900" dy="557" grid="1" gridSize="10" guides="1" tooltips="1" connect="1" arrows="1" fold="1" page="1" pageScale="1" pageWidth="850" pageHeight="1100" math="0" shadow="0">
      <root>
        <mxCell id="0" />
        <mxCell id="1" parent="0" />
        <mxCell id="q3_byKlzt3NaV8fAYEYW-48" value="" style="group" vertex="1" connectable="0" parent="1">
          <mxGeometry x="-65" y="80" width="975" height="305.5" as="geometry" />
        </mxCell>
        <mxCell id="cXXZQML2C5GM78Ruy4s4-1" value="" style="image;aspect=fixed;html=1;points=[];align=center;fontSize=12;image=img/lib/azure2/general/Files.svg;direction=south;rotation=-90;" parent="q3_byKlzt3NaV8fAYEYW-48" vertex="1">
          <mxGeometry x="165" y="90" width="70" height="64" as="geometry" />
        </mxCell>
        <mxCell id="cXXZQML2C5GM78Ruy4s4-2" value="" style="endArrow=classic;html=1;rounded=0;entryX=-0.006;entryY=0.41;entryDx=0;entryDy=0;entryPerimeter=0;" parent="q3_byKlzt3NaV8fAYEYW-48" edge="1" target="q3_byKlzt3NaV8fAYEYW-1">
          <mxGeometry width="50" height="50" relative="1" as="geometry">
            <mxPoint x="235" y="120" as="sourcePoint" />
            <mxPoint x="305" y="120" as="targetPoint" />
          </mxGeometry>
        </mxCell>
        <mxCell id="q3_byKlzt3NaV8fAYEYW-28" value="" style="edgeStyle=orthogonalEdgeStyle;rounded=0;orthogonalLoop=1;jettySize=auto;html=1;" edge="1" parent="q3_byKlzt3NaV8fAYEYW-48" source="q3_byKlzt3NaV8fAYEYW-1" target="q3_byKlzt3NaV8fAYEYW-3">
          <mxGeometry relative="1" as="geometry" />
        </mxCell>
        <mxCell id="q3_byKlzt3NaV8fAYEYW-1" value="&lt;b&gt;Python Scripts&amp;nbsp;&lt;/b&gt;&lt;div&gt;&lt;span style=&quot;background-color: transparent; color: light-dark(rgb(0, 0, 0), rgb(255, 255, 255));&quot;&gt;- Clean&lt;/span&gt;&lt;/div&gt;&lt;div&gt;&lt;span style=&quot;background-color: transparent; color: light-dark(rgb(0, 0, 0), rgb(255, 255, 255));&quot;&gt;&amp;nbsp; &amp;nbsp; &amp;nbsp; - Prediction&lt;/span&gt;&lt;/div&gt;&lt;div&gt;&lt;span style=&quot;background-color: transparent; color: light-dark(rgb(0, 0, 0), rgb(255, 255, 255));&quot;&gt;&amp;nbsp;&lt;/span&gt;&lt;/div&gt;" style="rounded=0;whiteSpace=wrap;html=1;" vertex="1" parent="q3_byKlzt3NaV8fAYEYW-48">
          <mxGeometry x="385" y="80" width="130" height="100" as="geometry" />
        </mxCell>
        <mxCell id="q3_byKlzt3NaV8fAYEYW-2" value="" style="endArrow=classic;html=1;rounded=0;" edge="1" parent="q3_byKlzt3NaV8fAYEYW-48" target="q3_byKlzt3NaV8fAYEYW-3">
          <mxGeometry width="50" height="50" relative="1" as="geometry">
            <mxPoint x="515" y="130" as="sourcePoint" />
            <mxPoint x="615" y="130" as="targetPoint" />
          </mxGeometry>
        </mxCell>
        <mxCell id="q3_byKlzt3NaV8fAYEYW-9" style="edgeStyle=orthogonalEdgeStyle;rounded=0;orthogonalLoop=1;jettySize=auto;html=1;exitX=1;exitY=0.5;exitDx=0;exitDy=0;exitPerimeter=0;" edge="1" parent="q3_byKlzt3NaV8fAYEYW-48" source="q3_byKlzt3NaV8fAYEYW-3">
          <mxGeometry relative="1" as="geometry">
            <mxPoint x="725" y="130" as="targetPoint" />
          </mxGeometry>
        </mxCell>
        <mxCell id="q3_byKlzt3NaV8fAYEYW-3" value="MySQL" style="shape=cylinder3;whiteSpace=wrap;html=1;boundedLbl=1;backgroundOutline=1;size=15;" vertex="1" parent="q3_byKlzt3NaV8fAYEYW-48">
          <mxGeometry x="585" y="90" width="60" height="80" as="geometry" />
        </mxCell>
        <mxCell id="q3_byKlzt3NaV8fAYEYW-13" style="edgeStyle=orthogonalEdgeStyle;rounded=0;orthogonalLoop=1;jettySize=auto;html=1;exitX=1;exitY=0.5;exitDx=0;exitDy=0;" edge="1" parent="q3_byKlzt3NaV8fAYEYW-48" source="q3_byKlzt3NaV8fAYEYW-26" target="q3_byKlzt3NaV8fAYEYW-1">
          <mxGeometry relative="1" as="geometry" />
        </mxCell>
        <mxCell id="q3_byKlzt3NaV8fAYEYW-25" style="edgeStyle=orthogonalEdgeStyle;rounded=0;orthogonalLoop=1;jettySize=auto;html=1;entryX=0;entryY=0.5;entryDx=0;entryDy=0;" edge="1" parent="q3_byKlzt3NaV8fAYEYW-48">
          <mxGeometry relative="1" as="geometry">
            <mxPoint x="35" y="230" as="sourcePoint" />
            <mxPoint x="149" y="230" as="targetPoint" />
          </mxGeometry>
        </mxCell>
        <mxCell id="q3_byKlzt3NaV8fAYEYW-27" value="" style="edgeStyle=orthogonalEdgeStyle;rounded=0;orthogonalLoop=1;jettySize=auto;html=1;exitX=1;exitY=0.5;exitDx=0;exitDy=0;" edge="1" parent="q3_byKlzt3NaV8fAYEYW-48" target="q3_byKlzt3NaV8fAYEYW-26">
          <mxGeometry relative="1" as="geometry">
            <mxPoint x="229" y="230" as="sourcePoint" />
            <mxPoint x="385" y="140" as="targetPoint" />
          </mxGeometry>
        </mxCell>
        <mxCell id="q3_byKlzt3NaV8fAYEYW-26" value="MySQL" style="shape=cylinder3;whiteSpace=wrap;html=1;boundedLbl=1;backgroundOutline=1;size=15;" vertex="1" parent="q3_byKlzt3NaV8fAYEYW-48">
          <mxGeometry x="295" y="190" width="60" height="80" as="geometry" />
        </mxCell>
        <mxCell id="q3_byKlzt3NaV8fAYEYW-31" value="" style="verticalLabelPosition=bottom;aspect=fixed;html=1;shape=mxgraph.salesforce.sales;" vertex="1" parent="q3_byKlzt3NaV8fAYEYW-48">
          <mxGeometry x="735" width="100" height="100" as="geometry" />
        </mxCell>
        <mxCell id="q3_byKlzt3NaV8fAYEYW-35" value="PowerBI" style="rounded=0;whiteSpace=wrap;html=1;" vertex="1" parent="q3_byKlzt3NaV8fAYEYW-48">
          <mxGeometry x="725" y="110" width="120" height="60" as="geometry" />
        </mxCell>
        <mxCell id="q3_byKlzt3NaV8fAYEYW-36" value="&lt;b&gt;Extract&lt;/b&gt;" style="text;html=1;align=center;verticalAlign=middle;resizable=0;points=[];autosize=1;strokeColor=none;fillColor=none;" vertex="1" parent="q3_byKlzt3NaV8fAYEYW-48">
          <mxGeometry x="265" y="80" width="60" height="30" as="geometry" />
        </mxCell>
        <mxCell id="q3_byKlzt3NaV8fAYEYW-37" value="&lt;b&gt;Load&lt;/b&gt;" style="text;html=1;align=center;verticalAlign=middle;resizable=0;points=[];autosize=1;strokeColor=none;fillColor=none;" vertex="1" parent="q3_byKlzt3NaV8fAYEYW-48">
          <mxGeometry x="525" y="90" width="50" height="30" as="geometry" />
        </mxCell>
        <mxCell id="q3_byKlzt3NaV8fAYEYW-38" value="&lt;b&gt;Visualize&lt;/b&gt;" style="text;html=1;align=center;verticalAlign=middle;resizable=0;points=[];autosize=1;strokeColor=none;fillColor=none;" vertex="1" parent="q3_byKlzt3NaV8fAYEYW-48">
          <mxGeometry x="645" y="90" width="70" height="30" as="geometry" />
        </mxCell>
        <mxCell id="q3_byKlzt3NaV8fAYEYW-39" value="" style="shape=actor;whiteSpace=wrap;html=1;" vertex="1" parent="q3_byKlzt3NaV8fAYEYW-48">
          <mxGeometry x="5" y="190" width="40" height="60" as="geometry" />
        </mxCell>
        <mxCell id="q3_byKlzt3NaV8fAYEYW-41" value="&lt;b&gt;Transform&lt;/b&gt;" style="text;html=1;align=center;verticalAlign=middle;resizable=0;points=[];autosize=1;strokeColor=none;fillColor=none;" vertex="1" parent="q3_byKlzt3NaV8fAYEYW-48">
          <mxGeometry x="395" y="48" width="80" height="30" as="geometry" />
        </mxCell>
        <mxCell id="q3_byKlzt3NaV8fAYEYW-42" value="" style="sketch=0;html=1;aspect=fixed;strokeColor=none;shadow=0;fillColor=#3B8DF1;verticalAlign=top;labelPosition=center;verticalLabelPosition=bottom;shape=mxgraph.gcp2.enhance_ui_2" vertex="1" parent="q3_byKlzt3NaV8fAYEYW-48">
          <mxGeometry x="150" y="184.5" width="100" height="91" as="geometry" />
        </mxCell>
        <mxCell id="q3_byKlzt3NaV8fAYEYW-43" value="UI" style="text;html=1;align=center;verticalAlign=middle;resizable=0;points=[];autosize=1;strokeColor=none;fillColor=none;" vertex="1" parent="q3_byKlzt3NaV8fAYEYW-48">
          <mxGeometry x="165" y="275.5" width="40" height="30" as="geometry" />
        </mxCell>
        <mxCell id="q3_byKlzt3NaV8fAYEYW-44" value="User" style="text;html=1;align=center;verticalAlign=middle;resizable=0;points=[];autosize=1;strokeColor=none;fillColor=none;" vertex="1" parent="q3_byKlzt3NaV8fAYEYW-48">
          <mxGeometry y="248" width="50" height="30" as="geometry" />
        </mxCell>
        <mxCell id="q3_byKlzt3NaV8fAYEYW-45" value="Target DB" style="text;html=1;align=center;verticalAlign=middle;resizable=0;points=[];autosize=1;strokeColor=none;fillColor=none;" vertex="1" parent="q3_byKlzt3NaV8fAYEYW-48">
          <mxGeometry x="575" y="180" width="80" height="30" as="geometry" />
        </mxCell>
        <mxCell id="q3_byKlzt3NaV8fAYEYW-46" value="Source DB" style="text;html=1;align=center;verticalAlign=middle;resizable=0;points=[];autosize=1;strokeColor=none;fillColor=none;" vertex="1" parent="q3_byKlzt3NaV8fAYEYW-48">
          <mxGeometry x="285" y="275.5" width="80" height="30" as="geometry" />
        </mxCell>
        <mxCell id="q3_byKlzt3NaV8fAYEYW-47" value="Historical Data" style="text;html=1;align=center;verticalAlign=middle;resizable=0;points=[];autosize=1;strokeColor=none;fillColor=none;" vertex="1" parent="q3_byKlzt3NaV8fAYEYW-48">
          <mxGeometry x="145" y="60" width="100" height="30" as="geometry" />
        </mxCell>
      </root>
    </mxGraphModel>
  </diagram>
</mxfile>
